<svg width="164" height="232" viewBox="0 0 164 232" fill="none" xmlns="http://www.w3.org/2000/svg">
<path d="M145.417 27.8397C151.976 37.9742 153.039 50.4734 149.688 61.9349C146.351 73.3841 138.429 85.7871 128.463 92.6118C118.109 99.7073 103.324 94.4482 101.369 81.5658C100.991 79.0538 100.936 75.4464 102.19 73.1282C104.978 67.9873 108.971 70.6449 111.828 73.3838C115.964 77.3547 118.455 82.8028 119.671 88.3465C124.32 109.574 111.733 135.769 91.3615 144.192C85.8598 146.464 78.7247 147.538 73.5938 143.742C71.1446 141.932 68.8236 138.409 71.738 135.758C74.6105 133.144 79.3042 134.135 81.6567 136.837C85.0876 140.779 85.2294 146.887 85.1652 151.835C85.0844 158.595 84.0699 165.403 81.8037 171.788C77.6847 183.374 69.0972 193.551 57.2793 197.699C45.0196 202.006 30.7301 198.142 23.3731 187.179C22.3098 185.596 19.9645 187.404 21.0234 188.976C28.7493 200.396 43.5873 204.781 56.5876 200.875C70.8863 196.578 81.1048 183.996 85.2606 170.023C87.4931 162.495 88.4078 154.355 87.7568 146.515C87.3343 141.377 85.7034 135.251 80.8203 132.578C76.8724 130.423 70.7029 131.328 68.3325 135.43C65.4791 140.382 70.033 145.411 74.3285 147.44C87.149 153.49 101.822 142.723 109.729 133.397C119.226 122.204 124.64 106.954 123.005 92.2399C122.288 85.8071 120.166 79.2824 116.108 74.1602C113.314 70.6317 107.477 64.7091 102.584 67.9659C98.0143 71.0051 97.8621 78.9462 99.0028 83.6438C100.394 89.3939 104.195 94.2044 109.586 96.7088C126.16 104.404 140.168 86.7503 147.028 73.8764C154.824 59.2438 155.907 41.1533 146.484 26.9861C146.017 26.266 144.946 27.1088 145.417 27.8397Z" fill="#FF7628" fill-opacity="0.7"/>
<path d="M33.8445 183.438C27.5674 189.507 21.4047 195.711 15.2451 201.909C16.0534 202.123 16.8617 202.338 17.67 202.552C15.5323 194.032 13.3977 185.503 11.2491 176.987C10.6166 177.481 9.98414 177.975 9.35167 178.468C16.8094 181.004 24.2627 183.528 31.7204 186.064C31.9494 185.198 32.1707 184.33 32.3965 183.473C27.8501 182.91 23.63 181.638 19.5145 179.629C18.1708 178.971 16.8994 181.112 18.1816 181.942C21.7264 184.228 25.2744 186.506 28.8224 188.784C29.26 188.022 29.7084 187.256 30.1459 186.494C25.0151 184.536 20.2569 182.04 15.7505 178.885C14.3417 177.904 12.8237 179.882 14.1267 180.989C17.6272 183.974 21.1232 186.947 24.6238 189.932C24.9476 189.142 25.2746 188.343 25.5984 187.553C20.0585 186.637 17.4823 180.652 13.5664 177.237C12.2453 176.087 10.7031 178.188 11.9255 179.361C16.4393 183.657 20.2265 188.48 23.3992 193.84C24.0328 193.212 24.6587 192.581 25.2923 191.954C20.0897 188.442 16.0365 183.94 13.1814 178.352C12.4076 178.797 11.6339 179.242 10.8646 179.698C14.3141 184.382 16.8949 189.437 18.7034 194.954C19.4772 194.51 20.2432 194.062 21.0201 193.609C17.3169 189.26 14.4875 184.462 12.4867 179.107C11.6536 179.456 10.8314 179.8 9.99842 180.149C12.5123 185.849 14.4612 191.702 15.8245 197.781C16.1111 199.073 17.829 199.364 18.4077 198.105C19.8555 194.942 21.7817 192.406 24.4586 190.16C25.8126 189.021 24.279 187.12 22.8177 188.018C20.2898 189.573 18.9308 191.687 18.2741 194.537C18.0154 195.649 19.6007 196.505 20.4308 195.77C23.5155 193.009 26.7703 190.534 30.2434 188.291C29.6157 187.657 28.9848 187.031 28.3571 186.398C25.6783 189.611 22.7722 192.57 19.5954 195.293C20.1362 196.007 20.6878 196.717 21.2286 197.432C23.404 195.491 25.5871 193.553 27.7624 191.612C29.0456 190.471 27.4859 188.371 26.1292 189.473C22.4404 192.461 19.0959 195.725 16.0073 199.326C15.1628 200.315 16.3947 202.012 17.5903 201.391C19.7266 200.267 21.4502 198.948 23.0836 197.17C24.2663 195.88 22.1356 194.299 20.9519 195.526C19.8334 196.681 18.7887 197.481 17.4526 198.314C15.9819 199.235 17.6291 201.362 19.0859 200.453C20.5923 199.51 21.844 198.446 23.0728 197.175C22.3658 196.625 21.6557 196.083 20.941 195.531C19.5548 197.033 18.338 197.968 16.5344 198.915C17.0584 199.604 17.5933 200.289 18.1174 200.979C21.052 197.557 24.2412 194.454 27.7439 191.614C27.2031 190.899 26.6515 190.189 26.1107 189.475C23.9353 191.416 21.7523 193.353 19.5769 195.294C18.2938 196.436 19.8932 198.57 21.2102 197.433C24.5608 194.549 27.6345 191.443 30.4627 188.04C31.4894 186.803 29.8042 185.359 28.5763 186.147C25.0956 188.387 21.8376 190.87 18.7637 193.626C19.4826 194.037 20.2015 194.448 20.9204 194.859C21.4414 192.581 22.5624 191.31 24.4248 190.155C23.8763 189.438 23.3323 188.731 22.7839 188.013C19.7642 190.549 17.5189 193.492 15.8828 197.07C16.7428 197.181 17.606 197.283 18.466 197.394C17.0522 191.087 15.0636 185.003 12.456 179.095C11.7561 177.5 9.36212 178.508 9.96772 180.137C12.0515 185.705 14.9823 190.714 18.8474 195.237C19.8632 196.433 21.6417 195.352 21.1641 193.892C19.2867 188.149 16.5611 182.901 12.9792 178.036C12.0851 176.828 9.95168 177.988 10.6624 179.382C13.7236 185.386 18.0197 190.301 23.6176 194.073C24.9377 194.963 26.2776 193.486 25.5106 192.186C22.2071 186.621 18.2253 181.682 13.5357 177.225C12.9862 177.932 12.4443 178.642 11.8948 179.349C16.4468 183.311 18.7502 189.13 25.2499 190.197C26.6095 190.423 27.1742 188.629 26.2246 187.818C22.7209 184.841 19.228 181.86 15.7243 178.883C15.1856 179.586 14.6392 180.285 14.1005 180.987C18.7907 184.262 23.7648 186.909 29.1105 188.956C30.4585 189.472 31.7469 187.508 30.434 186.666C26.8892 184.38 23.3552 182.09 19.8103 179.804C19.3696 180.574 18.9212 181.34 18.4774 182.117C22.8136 184.243 27.2644 185.565 32.0585 186.157C33.5339 186.341 34.2074 184.062 32.7345 183.566C25.2831 181.016 17.8424 178.46 10.3909 175.91C9.49404 175.605 8.21774 176.292 8.49353 177.391C10.639 185.915 12.8029 194.437 14.9623 202.949C15.259 204.128 16.5543 204.488 17.3872 203.593C23.2873 197.307 29.1859 191.003 34.9576 184.594C35.5794 183.907 34.5074 182.805 33.8445 183.438Z" fill="#FF7628" fill-opacity="0.7"/>
</svg>
