<svg width="80" height="80" viewBox="0 0 80 80" fill="none" xmlns="http://www.w3.org/2000/svg">
<rect width="80" height="80" rx="10" fill="#52C5B6"/>
<g clip-path="url(#clip0_1472_6924)">
<path d="M39.9999 16C26.7664 16 16 26.7662 16 39.9999C16 53.2336 26.7664 64 39.9999 64C53.2333 64 63.9997 53.2336 63.9997 39.9999C63.9997 26.7662 53.2336 16 39.9999 16ZM53.781 35.9461L38.7031 51.024C38.062 51.6651 37.2098 52.018 36.3032 52.018C35.3966 52.018 34.5444 51.6651 33.9033 51.024L26.2187 43.3394C25.5776 42.6983 25.2245 41.8461 25.2245 40.9395C25.2245 40.0327 25.5776 39.1805 26.2187 38.5393C26.8596 37.8982 27.7118 37.5451 28.6186 37.5451C29.5252 37.5451 30.3777 37.8982 31.0185 38.5396L36.303 43.8238L48.9807 31.146C49.6218 30.5049 50.474 30.152 51.3806 30.152C52.2872 30.152 53.1394 30.5049 53.7805 31.146C55.1043 32.4698 55.1043 34.6228 53.781 35.9461Z" fill="white"/>
</g>
<defs>
<clipPath id="clip0_1472_6924">
<rect width="48" height="48" fill="white" transform="translate(16 16)"/>
</clipPath>
</defs>
</svg>
