<svg width="557" height="809" viewBox="0 0 557 809" fill="none" xmlns="http://www.w3.org/2000/svg">
<path d="M327.167 -163.423C280.357 -136.183 260.685 -77.1 262.316 -22.9318C263.946 31.2365 282.661 83.2129 295.072 135.996C307.483 188.779 313.173 246.381 290.072 295.378C248.962 382.539 139.509 406.521 54.6049 452.115C-73.8654 521.088 -160.327 662.16 -163.52 808.017" stroke="#FF5538" stroke-opacity="0.4" stroke-width="2" stroke-miterlimit="10"/>
<path d="M294.425 -180.291C247.57 -153.003 227.849 -93.869 229.446 -39.6662C231.044 14.5365 249.737 66.5351 262.122 119.345C274.508 172.155 280.165 229.791 257.02 278.835C215.83 366.079 106.296 390.145 21.3125 435.822C-107.278 504.922 -193.88 646.14 -197.167 792.094" stroke="#FF5538" stroke-opacity="0.4" stroke-width="2" stroke-miterlimit="10"/>
<path d="M261.69 -197.154C214.835 -169.866 195.115 -110.732 196.712 -56.5295C198.309 -2.3268 217.003 49.6719 229.388 102.482C241.773 155.291 247.431 212.928 224.286 261.972C183.096 349.215 73.5616 373.282 -11.4218 418.959C-140.013 488.058 -226.614 629.276 -229.901 775.231" stroke="#FF5538" stroke-opacity="0.4" stroke-width="2" stroke-miterlimit="10"/>
<path d="M228.046 -213.076C181.236 -185.835 161.564 -126.752 163.194 -72.5841C164.825 -18.4159 183.54 33.5605 195.951 86.3435C208.361 139.126 214.052 196.729 190.951 245.726C149.841 332.887 40.3876 356.868 -44.5163 402.463C-172.987 471.436 -259.448 612.508 -262.641 758.365" stroke="#FF5538" stroke-opacity="0.4" stroke-width="2" stroke-miterlimit="10"/>
</svg>
